<svg id="icon_favorite" xmlns="http://www.w3.org/2000/svg" width="20" height="16" viewBox="0 0 20 16">
  <path id="icons8_favorite_folder_1" d="M4,4A2.006,2.006,0,0,0,2,6V18a2.006,2.006,0,0,0,2,2H20a2.006,2.006,0,0,0,2-2V8a2.006,2.006,0,0,0-2-2H12L10,4ZM4,8H20V18H4Zm6.4,1.5a2.388,2.388,0,0,0-2.15,1.379,2.2,2.2,0,0,0-.25.984c-.016,1.477,1.495,2.751,2.137,3.293l.129.109A20.446,20.446,0,0,0,12,16.5a20.515,20.515,0,0,0,1.736-1.234l.129-.111c.642-.542,2.151-1.814,2.135-3.291a2.178,2.178,0,0,0-.25-.986A2.386,2.386,0,0,0,13.6,9.5a2.156,2.156,0,0,0-1.6.746A2.108,2.108,0,0,0,10.4,9.5Z" transform="translate(-2 -4)" fill="#2929bb"/>
</svg>
