<svg xmlns="http://www.w3.org/2000/svg" width="19.684" height="19.684" viewBox="0 0 19.684 19.684">
  <path id="icon_copy" d="M3.028,0A3.034,3.034,0,0,0,0,3.028V12.87A3.034,3.034,0,0,0,3.028,15.9H6.814V14.384H3.028A1.513,1.513,0,0,1,1.514,12.87V3.028A1.513,1.513,0,0,1,3.028,1.514H6.269c.547.139.544.8.544,1.467V4.542a.761.761,0,0,0,.189.5A3.031,3.031,0,0,1,9.842,3.028h.047l-.4-.4C9.3,2.44,9.1,2.265,8.919,2.082,7.624.76,6.861,0,6.057,0ZM10.6,3.785A3.034,3.034,0,0,0,7.571,6.814v9.842A3.034,3.034,0,0,0,10.6,19.684h6.057a3.034,3.034,0,0,0,3.028-3.028V9.842c0-.8-.736-1.567-2.058-2.863-.183-.18-.382-.381-.568-.568s-.387-.361-.568-.544c-1.3-1.322-2.058-2.082-2.863-2.082Zm0,1.514H13.84c.547.139.544.8.544,1.467V8.328a.759.759,0,0,0,.757.757h1.514c.754,0,1.514,0,1.514.757v6.814a1.513,1.513,0,0,1-1.514,1.514H10.6a1.513,1.513,0,0,1-1.514-1.514V6.814A1.513,1.513,0,0,1,10.6,5.3Zm-7.571.757V7.571H6.814V6.057Zm0,2.271V9.842H6.814V8.328ZM10.6,9.842v1.514h6.057V9.842ZM3.028,10.6v1.514H6.814V10.6ZM10.6,12.113v1.514h4.542V12.113Zm0,2.271V15.9h6.057V14.384Z" fill="#c4c4c4"/>
</svg>
