<svg xmlns="http://www.w3.org/2000/svg" width="15.433" height="22.292" viewBox="0 0 15.433 22.292">
  <path id="icon_microphone" d="M11.716,0A4.287,4.287,0,0,0,7.43,4.287v6.859a4.287,4.287,0,0,0,4.287,4.287c.147,0,.285-.013.429-.027a4.332,4.332,0,0,0,3.135-1.876A4.22,4.22,0,0,0,16,11.146V4.287A4.287,4.287,0,0,0,11.716,0Zm0,1.715A2.575,2.575,0,0,1,14.128,3.43h-.7a.857.857,0,1,0,0,1.715h.857V6h-.857a.857.857,0,1,0,0,1.715h.857v.857H9.144V7.716H10A.857.857,0,0,0,10,6H9.144V5.144H10A.857.857,0,0,0,10,3.43h-.7A2.575,2.575,0,0,1,11.716,1.715ZM4.857,9.431c-.764,0-.857.857-.857.857v.857a7.708,7.708,0,0,0,6,7.5v1.929H7.43a.869.869,0,0,0-.857.857v.857H16.861v-.857A.859.859,0,0,0,16,20.577H13.431V18.648a7.708,7.708,0,0,0,6-7.5v-.857s-.08-.857-.857-.857-.857.857-.857.857v.857a6,6,0,0,1-12,0v-.857S5.621,9.431,4.857,9.431Z" transform="translate(-4)" fill="#c4c4c4"/>
</svg>
