<svg id="icon_history" xmlns="http://www.w3.org/2000/svg" width="12.444" height="16" viewBox="0 0 12.444 16">
  <path id="icons8_sand_clock" d="M5,3V4.778H6.778V5.972a4.441,4.441,0,0,0,1.3,3.142L9.965,11,8.08,12.885a4.441,4.441,0,0,0-1.3,3.142v1.194H5V19H17.444V17.222H15.667V16.028a4.446,4.446,0,0,0-1.3-3.142L12.479,11l1.885-1.885a4.444,4.444,0,0,0,1.3-3.142V4.778h1.778V3ZM8.556,4.778h5.333V5.972a2.662,2.662,0,0,1-.781,1.885L11.222,9.743,9.337,7.856a2.658,2.658,0,0,1-.781-1.884Zm2.667,7.479,1.885,1.885a2.668,2.668,0,0,1,.781,1.885v1.194H8.556V16.028a2.658,2.658,0,0,1,.781-1.884Z" transform="translate(-5 -3)" fill="#fff"/>
</svg>
