<svg xmlns="http://www.w3.org/2000/svg" width="21" height="15.901" viewBox="0 0 21 15.901">
  <path id="icon_voice" d="M22.713,4.813,21.325,5.7a12.488,12.488,0,0,1,1.06,4.922,12.489,12.489,0,0,1-1.06,4.922l1.388.883a13.734,13.734,0,0,0,0-11.611ZM9.462,6.175a4.842,4.842,0,0,0-2.852,8.758A6.432,6.432,0,0,0,3,20.714H4.615a4.788,4.788,0,0,1,4.846-4.846,4.788,4.788,0,0,1,4.846,4.846h1.615a6.432,6.432,0,0,0-3.609-5.78A4.842,4.842,0,0,0,9.462,6.175Zm10.5.4L18.6,7.463a9.98,9.98,0,0,1,.555,3.155,9.981,9.981,0,0,1-.555,3.155l1.363.883a10.878,10.878,0,0,0,.808-4.038A10.878,10.878,0,0,0,19.962,6.579ZM9.462,7.791a3.231,3.231,0,1,1-3.231,3.231A3.217,3.217,0,0,1,9.462,7.791Zm7.749.656-1.439.959a6.118,6.118,0,0,1,.151,1.212,6.118,6.118,0,0,1-.151,1.212l1.439.959a6.734,6.734,0,0,0,.328-2.171A6.423,6.423,0,0,0,17.21,8.447Z" transform="translate(-3 -4.813)" fill="#c4c4c4"/>
</svg>
